<?xml version="1.0" standalone="no"?>
<!DOCTYPE svg PUBLIC "-//W3C//DTD SVG 20010904//EN"
 "http://www.w3.org/TR/2001/REC-SVG-20010904/DTD/svg10.dtd">
<svg version="1.0" xmlns="http://www.w3.org/2000/svg"
 width="754.000000pt" height="754.000000pt" viewBox="0 0 754.000000 754.000000"
 preserveAspectRatio="xMidYMid meet">
<metadata>
Created by potrace 1.14, written by Peter Selinger 2001-2017
</metadata>
<g transform="translate(0.000000,754.000000) scale(0.100000,-0.100000)"
fill="#000000" stroke="none">
<path d="M3717 7523 c-1 0 -66 -4 -144 -8 -78 -3 -153 -8 -165 -10 -13 -2 -49
-6 -82 -10 -32 -4 -70 -9 -85 -12 -14 -3 -35 -6 -46 -8 -95 -12 -174 -29 -170
-35 3 -5 -3 -6 -12 -4 -10 3 -47 -2 -83 -11 -36 -9 -75 -18 -86 -20 -87 -19
-389 -117 -459 -149 -16 -8 -84 -38 -150 -66 -66 -29 -127 -58 -135 -65 -8 -8
-18 -14 -23 -14 -26 -2 -317 -169 -357 -206 -9 -8 -22 -15 -28 -15 -7 0 -12
-4 -12 -10 0 -5 -5 -10 -11 -10 -9 0 -28 -13 -94 -63 -5 -4 -46 -34 -90 -67
-128 -97 -314 -264 -310 -278 3 -7 0 -10 -5 -7 -11 7 -60 -38 -60 -55 0 -6 -4
-9 -9 -5 -12 7 -53 -50 -43 -60 4 -5 2 -5 -4 -2 -10 5 -114 -94 -114 -108 0
-3 -11 -16 -25 -29 -14 -13 -25 -28 -25 -35 0 -6 -4 -11 -9 -11 -18 0 -254
-326 -315 -436 -9 -16 -30 -51 -47 -79 -16 -27 -39 -70 -51 -95 -12 -25 -24
-47 -27 -50 -11 -10 -86 -173 -84 -182 2 -4 -2 -8 -7 -8 -6 0 -10 -7 -10 -15
0 -9 -7 -27 -16 -40 -9 -14 -13 -25 -10 -25 4 0 -1 -11 -10 -25 -9 -14 -14
-32 -10 -40 3 -9 2 -13 -4 -10 -6 3 -10 5 -10 3 0 -2 -21 -61 -46 -133 -25
-71 -47 -137 -49 -145 -38 -136 -75 -280 -80 -307 -3 -20 -7 -38 -9 -42 -2 -3
-7 -28 -10 -55 -4 -27 -9 -52 -10 -55 -2 -3 -7 -28 -10 -56 -4 -27 -9 -63 -11
-80 -2 -16 -7 -52 -10 -79 -3 -27 -8 -53 -11 -58 -3 -4 0 -8 6 -8 7 0 8 -6 2
-17 -13 -26 -17 -103 -17 -353 1 -224 5 -347 13 -364 3 -5 6 -34 8 -64 1 -30
5 -69 8 -86 3 -17 8 -49 11 -71 19 -128 102 -486 120 -514 2 -4 6 -18 8 -32 4
-21 12 -44 43 -124 4 -11 8 -22 8 -25 4 -15 42 -111 59 -150 11 -25 21 -48 21
-51 4 -28 121 -257 129 -252 6 3 7 1 3 -5 -6 -10 10 -50 25 -62 4 -3 9 -14 13
-25 3 -11 21 -43 39 -71 18 -28 36 -57 39 -65 6 -16 157 -240 167 -249 3 -3
19 -24 35 -47 16 -24 33 -40 40 -36 6 3 8 3 4 -2 -7 -8 11 -37 54 -86 13 -15
36 -43 52 -63 15 -20 33 -33 39 -29 6 3 7 1 3 -6 -10 -16 319 -345 335 -335 7
4 9 3 6 -3 -4 -6 26 -37 66 -69 39 -33 78 -64 85 -71 31 -30 136 -98 146 -95
6 2 8 0 4 -4 -8 -7 163 -126 257 -179 224 -125 246 -136 395 -203 154 -69 337
-135 350 -127 5 3 10 2 10 -3 0 -8 40 -23 99 -38 9 -2 55 -15 104 -28 48 -14
87 -22 87 -19 0 3 8 -1 17 -8 15 -12 16 -12 8 1 -7 12 -6 13 6 4 13 -11 39
-18 102 -29 15 -3 39 -7 55 -10 221 -43 404 -59 672 -59 176 0 362 8 405 18
11 2 42 5 68 5 27 1 46 4 44 9 -3 4 20 8 50 9 155 6 587 119 828 218 200 82
495 228 545 270 8 7 30 20 48 29 19 10 30 21 26 28 -4 7 -3 8 4 4 10 -6 126
63 142 84 3 4 13 9 23 13 10 4 15 11 12 17 -3 5 0 8 7 5 7 -3 28 8 46 25 18
16 36 30 39 30 4 0 83 63 119 95 6 5 36 30 65 55 68 56 341 329 394 394 40 48
68 82 82 101 5 6 25 31 46 56 20 25 37 51 37 58 0 6 4 11 9 11 14 0 162 230
156 241 -4 5 -2 8 4 7 22 -6 222 369 286 537 14 39 30 79 35 90 11 26 23 59
24 65 1 3 4 10 7 15 18 28 114 364 132 462 2 10 7 29 10 43 3 14 8 41 11 60 3
19 12 77 21 129 9 52 14 100 11 107 -3 8 -2 14 2 14 5 0 9 19 11 42 1 23 4 44
6 47 3 2 -1 11 -8 19 -7 10 -7 13 -1 9 14 -8 17 43 18 328 0 259 -3 343 -16
369 -8 14 -7 17 3 11 8 -5 10 -4 5 4 -4 6 -10 35 -12 64 -3 29 -8 59 -11 67
-3 8 -6 35 -8 60 -5 85 -42 250 -121 550 -4 14 -10 30 -14 35 -3 6 -15 38 -25
73 -10 34 -22 62 -27 62 -5 0 -7 4 -4 9 7 11 -33 110 -119 296 -58 124 -65
138 -100 200 -70 125 -133 227 -200 327 -73 107 -85 123 -117 159 -10 10 -18
22 -18 27 0 4 -18 27 -41 51 -22 25 -43 50 -47 57 -20 34 -240 267 -286 302
-16 12 -26 22 -22 22 3 0 -29 30 -71 68 -121 105 -191 162 -197 162 -3 0 -14
8 -24 18 -11 9 -32 26 -47 37 -16 11 -41 30 -56 43 -15 12 -30 22 -33 22 -3 0
-29 18 -58 40 -29 22 -57 40 -61 40 -5 0 -23 10 -40 23 -86 60 -337 194 -337
180 0 -4 -6 1 -13 11 -7 9 -19 18 -27 20 -8 2 -41 15 -73 30 -32 14 -63 23
-69 20 -7 -4 -8 -2 -4 4 4 7 -4 14 -21 18 -15 4 -32 10 -38 14 -9 7 -37 17
-195 72 -79 28 -247 78 -294 88 -23 5 -94 20 -158 34 -64 14 -143 28 -175 31
-32 4 -60 8 -64 10 -3 3 -36 7 -73 10 -37 4 -76 8 -88 10 -34 7 -416 23 -421
18z m201 -108 c59 -2 136 -7 172 -10 36 -4 81 -8 100 -10 56 -5 285 -40 330
-51 8 -2 47 -10 85 -19 85 -20 84 -19 170 -45 39 -11 77 -18 85 -15 8 4 11 3
7 -1 -7 -7 170 -73 206 -76 9 -1 17 -5 17 -9 0 -3 19 -12 43 -19 23 -8 57 -22
75 -32 17 -10 32 -15 32 -13 0 6 342 -166 350 -176 3 -3 30 -19 60 -35 30 -16
63 -37 74 -47 11 -10 26 -15 34 -12 7 2 11 1 9 -3 -6 -9 120 -95 138 -95 8 0
12 -4 9 -8 -2 -5 8 -16 23 -26 15 -10 33 -22 39 -28 7 -5 24 -19 39 -29 14
-11 34 -27 45 -35 10 -9 33 -28 51 -43 19 -14 54 -44 79 -66 24 -23 49 -38 55
-35 5 4 7 2 2 -2 -9 -11 23 -46 35 -39 4 3 7 2 6 -3 -1 -4 45 -56 102 -114 58
-59 115 -119 128 -133 39 -46 156 -191 176 -218 11 -15 24 -24 28 -22 5 3 8 2
7 -3 -3 -18 2 -30 19 -49 29 -32 122 -172 122 -183 0 -6 5 -11 10 -11 6 0 10
-5 10 -11 0 -6 9 -23 20 -39 51 -71 194 -356 257 -510 61 -149 125 -341 139
-415 4 -21 10 -32 17 -28 5 3 7 1 4 -4 -9 -15 27 -175 37 -166 5 4 6 3 3 -3
-4 -7 -2 -36 4 -65 5 -30 13 -76 16 -104 3 -27 8 -52 12 -55 3 -3 6 -18 6 -35
-1 -16 3 -55 7 -85 26 -183 29 -729 3 -769 -3 -6 -1 -11 5 -11 6 0 8 -5 3 -12
-9 -15 -8 -14 -17 -94 -6 -52 -28 -186 -40 -252 -3 -12 -19 -80 -36 -150 -17
-70 -33 -134 -35 -142 -3 -14 -68 -207 -100 -299 -9 -24 -22 -56 -31 -72 -8
-16 -15 -31 -15 -34 0 -10 -53 -125 -104 -227 -29 -58 -51 -109 -47 -112 3 -3
0 -6 -5 -6 -6 0 -29 -33 -51 -72 -40 -73 -196 -311 -236 -359 -11 -14 -32 -41
-46 -59 -20 -28 -119 -144 -165 -196 -46 -52 -213 -218 -269 -268 -103 -91
-112 -99 -147 -126 -18 -14 -46 -37 -61 -52 -15 -15 -28 -25 -28 -23 0 4 -149
-100 -177 -125 -7 -5 -15 -10 -18 -10 -6 0 -67 -41 -75 -51 -3 -4 -15 -9 -28
-13 -12 -4 -19 -12 -16 -18 4 -6 3 -8 -3 -5 -5 3 -35 -10 -67 -29 -31 -18 -61
-34 -66 -34 -5 0 -15 -6 -22 -13 -15 -14 -143 -77 -158 -77 -5 0 -10 -4 -10
-10 0 -5 -5 -10 -10 -10 -9 0 -86 -32 -205 -85 -24 -11 -135 -51 -225 -82 -52
-17 -255 -73 -305 -84 -33 -7 -64 -14 -70 -15 -79 -17 -231 -42 -310 -49 -33
-4 -66 -8 -73 -11 -8 -2 -68 -7 -135 -10 -67 -4 -128 -11 -136 -18 -10 -7 -13
-7 -8 0 4 7 -23 11 -86 11 -102 0 -349 11 -387 18 -14 2 -45 6 -70 9 -135 15
-324 52 -478 92 -73 19 -139 31 -145 28 -7 -4 -8 -3 -4 1 4 5 -41 25 -100 45
-59 20 -125 44 -147 53 -21 9 -41 17 -44 17 -16 0 -346 161 -447 218 -67 37
-147 87 -223 140 -35 23 -67 40 -73 37 -5 -4 -8 -2 -7 3 2 5 -40 42 -92 82
-93 71 -176 140 -254 210 -21 19 -44 34 -50 32 -6 -2 -8 0 -4 4 4 4 -36 52
-90 107 -53 55 -106 109 -117 121 -11 12 -52 59 -90 106 -38 47 -73 90 -79 95
-6 6 -31 39 -55 75 -25 36 -48 66 -53 68 -4 2 -8 7 -8 12 0 4 -27 48 -59 97
-89 134 -233 398 -255 466 -4 11 -11 15 -18 11 -8 -5 -9 -2 -5 9 4 10 -9 53
-29 99 -51 116 -89 216 -99 258 -2 8 -4 16 -4 18 -1 1 -1 3 0 5 0 1 -5 16 -11
32 -7 17 -19 55 -27 85 -32 122 -54 206 -59 230 -15 80 -24 128 -28 154 -16
93 -20 122 -18 134 2 6 -1 12 -5 12 -4 0 -9 28 -10 63 -1 34 -4 85 -7 112 -2
28 -6 87 -7 133 -2 46 -7 86 -11 88 -5 3 -5 10 -1 17 4 6 7 65 8 132 2 123 14
297 21 304 2 2 -2 11 -9 19 -9 13 -9 14 0 8 13 -7 13 -5 17 106 0 20 3 34 6
31 3 -2 10 31 17 74 7 43 14 87 17 98 2 11 6 34 10 50 3 17 9 41 12 55 4 14 7
37 8 52 0 14 4 24 9 21 4 -2 7 3 7 12 0 22 48 196 60 217 6 10 10 24 10 32 0
8 9 36 20 62 11 26 22 54 23 63 2 9 13 38 25 65 12 27 22 51 22 53 0 5 4 15
69 156 23 49 41 93 41 97 0 5 6 15 13 22 6 7 21 31 32 53 11 22 34 64 52 94
18 30 30 59 26 65 -3 6 -3 8 2 4 8 -7 65 74 65 92 0 6 5 10 10 10 6 0 10 4 10
10 0 9 50 82 109 160 11 14 19 28 18 32 -1 4 5 13 15 20 9 7 48 52 86 100 100
123 108 132 199 226 46 46 80 89 76 95 -3 5 -1 7 5 3 6 -3 33 15 59 41 27 27
63 59 81 73 143 115 228 186 230 192 2 4 8 8 12 8 5 0 49 28 98 63 105 73 201
133 257 162 22 11 42 23 45 27 10 13 351 174 422 199 20 7 34 17 31 22 -4 6
-1 7 6 2 7 -4 23 -3 34 3 27 13 180 64 262 87 33 9 67 19 75 22 8 3 22 7 30 8
8 2 26 6 40 9 14 3 39 9 55 12 17 4 33 12 37 18 6 8 8 7 8 -2 0 -10 5 -10 20
-2 11 6 20 9 20 6 0 -2 17 0 38 5 20 5 53 12 72 15 19 3 46 7 60 9 14 3 52 8
85 11 33 4 63 12 67 18 5 8 8 7 8 -2 0 -7 3 -11 8 -9 10 7 139 17 276 22 65 3
121 7 124 10 3 2 9 2 14 -1 5 -3 57 -7 116 -9z m2329 -870 c0 -8 -4 -12 -9 -9
-5 3 -6 10 -3 15 9 13 12 11 12 -6z"/>
<path d="M3750 6905 c-113 -22 -227 -77 -292 -139 -85 -81 -106 -237 -52 -373
14 -35 24 -65 22 -66 -1 -1 -28 -19 -58 -39 -30 -20 -90 -53 -134 -73 -292
-139 -515 -381 -620 -673 -79 -221 -100 -597 -61 -1107 2 -27 5 -74 6 -103 1
-29 5 -55 9 -57 6 -4 22 72 35 165 64 467 118 668 227 834 48 73 102 131 150
162 63 40 121 32 438 -59 335 -97 418 -96 795 13 186 53 282 74 334 72 56 -2
182 -131 246 -254 59 -112 124 -335 150 -513 3 -23 7 -50 9 -60 2 -11 7 -42
10 -70 4 -27 11 -75 16 -105 5 -30 12 -84 15 -120 6 -56 23 -114 25 -85 1 6 3
51 6 100 2 50 7 104 10 120 3 17 7 152 9 300 3 221 0 292 -15 392 -9 67 -20
152 -24 189 -18 184 -95 382 -207 534 -130 177 -353 343 -571 425 -27 10 -48
20 -48 22 0 2 10 14 21 26 30 31 68 116 70 157 4 100 -23 174 -98 267 -93 116
-236 156 -423 118z m266 -339 c6 -33 -2 -133 -12 -160 -6 -15 -51 -10 -61 7
-11 17 -3 117 12 153 19 47 52 47 61 0z"/>
<path d="M2850 4630 c-169 -26 -178 -27 -189 -35 -7 -4 -11 -46 -11 -106 0
-82 3 -105 19 -127 11 -15 31 -81 46 -146 53 -245 90 -312 193 -357 118 -51
387 -57 526 -12 60 19 124 76 158 140 14 26 47 107 73 178 56 155 77 180 139
171 23 -4 48 -15 57 -26 9 -10 34 -68 54 -127 71 -202 115 -274 194 -317 90
-48 291 -64 466 -35 181 29 228 86 289 352 18 81 41 159 51 174 25 38 34 213
12 231 -14 12 -73 25 -162 37 -27 3 -77 10 -110 15 -33 5 -143 7 -245 6 -193
-4 -265 -16 -455 -76 -113 -35 -232 -31 -371 13 -61 20 -131 39 -155 42 -24 4
-64 10 -89 15 -77 15 -365 9 -490 -10z"/>
<path d="M2589 3695 c-1 -3 -2 -8 -3 -12 -1 -5 -6 -33 -10 -63 -11 -80 -69
-252 -137 -408 -86 -197 -121 -311 -123 -402 -1 -69 3 -83 45 -175 25 -55 52
-113 58 -130 l13 -30 22 70 c21 66 82 192 72 150 -37 -161 -47 -240 -51 -390
-3 -107 0 -149 21 -289 9 -65 54 -208 85 -273 34 -70 82 -120 187 -194 53 -36
73 -46 69 -32 -9 30 -25 116 -31 157 -8 59 8 31 38 -67 57 -187 148 -341 263
-447 48 -44 88 -69 161 -100 53 -23 107 -49 119 -56 12 -8 28 -14 35 -14 15 1
66 66 97 125 12 22 21 35 21 29 0 -13 -46 -126 -71 -176 -24 -47 -11 -49 52
-9 59 37 103 91 130 160 49 124 47 70 -3 -91 -16 -53 -51 -134 -78 -180 -52
-91 -49 -103 19 -69 107 55 185 189 226 388 14 65 25 133 25 152 0 19 3 31 7
27 13 -12 11 -200 -2 -281 -15 -93 -35 -157 -76 -239 -16 -33 -27 -62 -24 -64
10 -10 130 53 234 122 180 120 334 291 460 511 51 88 52 89 45 45 -8 -55 -45
-181 -68 -233 -11 -25 -13 -37 -5 -37 23 0 153 96 218 160 166 165 207 368
151 760 -5 35 -8 66 -6 67 5 5 65 -166 73 -206 l6 -34 27 59 c15 33 49 95 77
140 75 118 118 209 146 304 69 235 64 351 -32 750 -27 112 -39 174 -56 290 -3
19 -8 76 -11 125 -3 50 -8 97 -10 105 -3 9 -18 -10 -39 -48 -44 -83 -157 -232
-176 -232 -4 0 -9 23 -13 50 -4 28 -10 50 -14 49 -4 0 -20 -21 -37 -46 -45
-70 -92 -103 -158 -112 -76 -10 -149 10 -331 93 -226 102 -269 107 -372 37
l-57 -39 -46 33 c-104 74 -164 70 -372 -25 -299 -137 -396 -134 -502 19 -30
44 -30 44 -40 20 -5 -13 -7 -58 -4 -99 3 -52 2 -66 -4 -45 -5 17 -27 50 -50
75 -53 59 -113 147 -150 221 -27 54 -37 67 -40 54z m355 -543 c112 -103 271
-137 434 -93 43 12 111 32 150 45 94 32 196 46 312 42 99 -4 151 -15 310 -66
168 -55 301 -51 418 11 30 15 49 22 43 15 -6 -7 -44 -28 -83 -47 -68 -32 -80
-34 -173 -33 -67 0 -119 6 -158 18 -60 18 -72 18 -212 -10 -73 -14 -363 -13
-470 3 -101 14 -115 14 -172 -1 -153 -40 -311 1 -416 108 -39 40 -87 126 -87
156 0 8 13 -12 29 -45 16 -35 48 -78 75 -103z m1716 -6 c0 -2 -8 -10 -17 -17
-16 -13 -17 -12 -4 4 13 16 21 21 21 13z"/>
</g>
</svg>
